<?xml version="1.0" encoding="utf-8"?>
<!-- Generator: Adobe Illustrator 24.3.0, SVG Export Plug-In . SVG Version: 6.00 Build 0)  -->
<svg version="1.1" id="Layer_1" xmlns="http://www.w3.org/2000/svg" xmlns:xlink="http://www.w3.org/1999/xlink" x="0px" y="0px"
	 viewBox="0 0 500 500" style="enable-background:new 0 0 500 500;" xml:space="preserve">
<style type="text/css">
	.st0{fill:#FB4C3A;}
</style>
<g>
	<path class="st0" d="M35.54,326.06c3.73-5.92,7.45-11.83,11.23-17.82c0.63,0.27,1.15,0.5,1.68,0.71
		c11.31,4.53,22.37,4.49,32.81-2.28c7.25-4.7,11.37-11.43,11.74-20.22c0.03-0.83,0-1.66,0-2.82c-0.75,0.51-1.22,0.8-1.67,1.14
		c-17.79,13.32-40.67,12.48-57.27,0.87c-11.6-8.11-18.68-19.29-20.7-33.32c-2.66-18.53,3.28-34.15,17.38-46.36
		c11.34-9.82,24.8-13.88,39.81-12.69c6.39,0.51,12.48,2.01,18.07,5.22c1.66,0.95,3.22,2.08,5.13,3.32c0-1.69,0.01-3.18,0-4.68
		c-0.02-2.93-0.08-2.44,2.44-2.45c7.5-0.03,14.99-0.01,22.49,0c0.58,0,1.16,0,1.9,0c0.03,0.66,0.08,1.23,0.08,1.79
		c0.01,29.74,0.08,59.48-0.02,89.21c-0.05,13.35-5.39,24.54-14.92,33.75c-9.44,9.11-20.71,14.59-33.75,16.09
		c-13.06,1.5-25.15-1.31-35.95-9.02C35.88,326.4,35.76,326.26,35.54,326.06z M67.02,269.52c8.18-0.29,16.11-4.21,21.8-12.22
		c4.47-6.3,5.81-13.26,3.36-20.69c-5.41-16.42-25.94-25.42-42.19-13.64c-8.5,6.16-12.57,14.73-10.73,25.31
		C41.4,260.71,52.46,269.47,67.02,269.52z"/>
	<path class="st0" d="M487.25,243.41c-0.67,17.59-7.95,31.36-21.89,41.54c-8.84,6.45-18.84,9.91-29.76,10.65
		c-13.9,0.94-26.66-2.43-37.9-10.72c-10.95-8.08-17.78-18.85-19.83-32.4c-1.78-11.78,0.64-22.81,6.9-32.87
		c9.89-15.87,24.45-24.7,42.92-26.45c16.07-1.52,30.73,2.63,43.02,13.54c8.61,7.64,13.68,17.3,15.64,28.59
		C486.85,238.08,486.99,240.91,487.25,243.41z M404.82,245.79c0.27,1.63,0.44,3.75,0.99,5.76c3.08,11.28,13.47,19.22,25.67,19.2
		c10.51-0.02,18.77-4.69,24.36-13.61c4.55-7.26,4.96-14.96,1.22-22.71c-6.79-14.05-23.89-19.68-37.66-12.24
		C410.28,227.1,405.44,234.92,404.82,245.79z"/>
	<path class="st0" d="M192.31,194.74c9.17,0,18.22,0,27.35,0c0.04,0.41,0.09,0.75,0.09,1.1c0.01,18.25,0.04,36.51,0.01,54.76
		c-0.01,8.06-1.7,15.79-5.53,22.92c-4.74,8.8-12.05,14.74-21.37,18.13c-11.43,4.15-22.96,4.09-34.19-0.55
		c-13.75-5.68-21.69-16.21-24.12-30.83c-0.56-3.39-0.81-6.86-0.83-10.3c-0.09-17.85-0.06-35.7-0.06-53.55c0-0.49,0-0.98,0-1.61
		c9.13,0,18.16,0,27.36,0c0,0.56,0,1.08,0,1.61c0,18.52,0.02,37.05-0.01,55.57c-0.01,3.78,0.48,7.42,2.44,10.74
		c3.21,5.44,8.08,7.95,14.29,7.53c6.4-0.44,10.82-3.97,13.02-9.9c0.92-2.47,1.37-5.24,1.38-7.88c0.12-18.7,0.07-37.41,0.09-56.11
		C192.22,195.83,192.28,195.31,192.31,194.74z"/>
	<path class="st0" d="M339.86,164.17c0,0.72,0,1.33,0,1.95c0,8.92,0.02,17.85-0.04,26.77c-0.01,1.33,0.42,1.64,1.68,1.64
		c9.24-0.05,18.49-0.03,27.73-0.03c0.58,0,1.15,0,1.87,0c0,7.51,0,14.87,0,22.4c-0.58,0-1.11,0-1.64,0
		c-9.38,0-18.76,0.02-28.14-0.01c-1.02,0-1.5,0.14-1.5,1.36c0.04,13,0.01,26.01,0.04,39.01c0,1.47,0.09,2.98,0.42,4.4
		c1.37,5.95,6.08,9.17,12.31,8.54c3.09-0.31,5.94-1.31,8.58-2.93c0.87-0.53,1.75-1.08,2.72-1.68c4.37,5.68,8.71,11.31,13.17,17.09
		c-1.59,1.23-3.1,2.48-4.69,3.63c-8.46,6.15-17.93,8.93-28.36,8.11c-6.93-0.55-13.38-2.59-18.87-7.05
		c-5.13-4.18-8.11-9.71-9.95-15.95c-1.52-5.16-2.07-10.48-2.08-15.81c-0.06-29.91-0.03-59.82-0.03-89.73c0-1.76,0.01-1.77,1.76-1.78
		c7.85-0.01,15.71-0.01,23.56-0.01C338.85,164.09,339.29,164.14,339.86,164.17z"/>
	<path class="st0" d="M226.68,278.18c5.29-5.1,10.52-10.13,15.8-15.23c0.64,0.57,1.44,1.28,2.25,1.98
		c6.32,5.52,13.69,7.87,22.01,6.97c1.64-0.18,3.34-0.83,4.78-1.66c3.9-2.28,4.13-7.24,0.47-10.17c-1.7-1.36-3.64-2.47-5.58-3.45
		c-6.76-3.41-13.65-6.58-20.35-10.11c-4.66-2.46-8.92-5.58-11.97-10.02c-5.64-8.22-5.83-16.87-1.44-25.58
		c4.19-8.31,11.23-13.4,20.04-15.98c11.75-3.44,23.27-2.43,34.4,2.55c5.07,2.27,9.3,5.71,12.71,10.03
		c-5.59,5.53-11.16,11.03-16.85,16.65c-0.31-0.29-0.9-0.81-1.45-1.37c-4.68-4.71-10.28-7.1-16.96-6.7c-2.29,0.13-4.43,0.78-6.2,2.29
		c-2.34,2-2.54,5.32-0.36,7.5c0.96,0.96,2.14,1.82,3.37,2.39c6.17,2.88,12.42,5.61,18.6,8.47c4.81,2.23,9.44,4.78,13.45,8.33
		c12.01,10.65,10.99,27.02,1.34,37.46c-6.12,6.62-13.89,10.01-22.65,11.34c-8.27,1.25-16.48,0.89-24.54-1.38
		C239.11,290.14,232.15,285.55,226.68,278.18z"/>
</g>
</svg>
