<?xml version="1.0" encoding="utf-8"?>
<!-- Generator: Adobe Illustrator 24.3.0, SVG Export Plug-In . SVG Version: 6.00 Build 0)  -->
<svg version="1.1" id="Layer_1" xmlns="http://www.w3.org/2000/svg" xmlns:xlink="http://www.w3.org/1999/xlink" x="0px" y="0px"
	 viewBox="0 0 500 500" style="enable-background:new 0 0 500 500;" xml:space="preserve">
<style type="text/css">
	.st0{fill:#33325C;}
</style>
<g>
	<path class="st0" d="M280.54,343.14c0-2.04,0-3.33,0-4.61c0-45.12,0-90.24,0-135.36c0-4.79,0.01-4.8,4.91-4.81
		c5.94-0.01,11.89,0.19,17.82-0.07c3.5-0.15,5.43,0.79,5.44,4.53c0,0.8,0.39,1.59,0.61,2.42c3.88-2.21,7.44-4.85,11.42-6.4
		c17.58-6.88,36.63,0.33,46.81,17.42c8.67,14.56,9.91,30.46,8.3,46.84c-1.06,10.79-4.1,20.9-10.43,29.9
		c-12.13,17.25-36.18,21.31-51.71,9.88c-0.45-0.33-1.01-0.52-2-1.02c-0.09,1.6-0.21,2.84-0.21,4.08
		c-0.05,9.26-0.02,18.52-0.19,27.78c-0.02,1.11-0.89,3-1.67,3.18C300.16,339.08,290.64,341.02,280.54,343.14z M345.81,252.72
		c0.09-7.75-1.34-15.11-5.88-21.59c-6.17-8.81-18.06-10.39-26.22-3.33c-1.23,1.06-2.22,3.14-2.23,4.75
		c-0.11,13.63-0.03,27.27,0.2,40.9c0.03,1.52,0.98,3.45,2.14,4.45c8,6.87,19.94,5.32,26.03-3.26
		C344.51,268.08,345.87,260.59,345.81,252.72z"/>
	<path class="st0" d="M474.42,264.14c-20.1,0-40.13,0-60.1,0c-1.17,7.94,5.27,16.16,14.25,17.99c12.21,2.49,24.1,0.79,35.64-3.68
		c1.21-0.47,2.39-0.99,3.9-1.62c0.22,0.99,0.52,1.74,0.52,2.48c0.04,6.53,0.11,13.06-0.06,19.59c-0.03,1.14-0.93,2.84-1.89,3.27
		c-19.31,8.65-38.98,10.51-58.52,1.22c-13.65-6.48-20.89-18.46-23.88-32.79c-3.33-16-2.55-31.83,4.18-47.09
		c11.46-25.97,44.01-35.75,66.36-19.76c9.32,6.67,14.46,16.2,17.53,26.93c2.87,10.04,3.31,20.34,2.67,30.71
		C474.97,262.2,474.68,262.98,474.42,264.14z M445.65,241.47c0.2-7.32-1.5-13.34-7.22-17.41c-5.35-3.8-11.1-3.66-16.72-0.38
		c-4.84,2.82-9.13,11.07-8.24,16.01c0.12,0.69,1.32,1.69,2.03,1.7C425.42,241.5,435.34,241.47,445.65,241.47z"/>
	<path class="st0" d="M97.86,230.14c-6.01-1.94-11.41-4.25-17.05-5.33c-5.88-1.12-11.98-1.28-17.99-1.4
		c-3.14-0.06-5.75,1.63-6.5,5.05c-0.76,3.48,1.16,5.92,3.96,7.22c4.83,2.24,9.96,3.81,14.83,5.97c5.83,2.59,12.06,4.76,17.16,8.44
		c17.06,12.3,15.34,40.13-2.84,51.7c-8.93,5.69-18.88,7.42-29.27,7.47c-10.46,0.05-20.51-2.01-30.36-5.41
		c-2.73-0.94-3.84-2.35-3.75-5.4c0.24-8.28,0.08-16.57,0.08-25.23c4.41,1.82,8.37,3.66,12.47,5.11c8.33,2.95,16.81,5.16,25.8,4.02
		c3.65-0.46,6.71-1.79,7.72-5.74c0.85-3.32-0.57-6.41-4.87-8.55c-5.08-2.53-10.56-4.24-15.74-6.59c-5.28-2.39-10.73-4.63-15.52-7.82
		c-16.43-10.95-13.31-36.42-0.9-47.13c8.76-7.56,19.23-10.06,30.39-10.31c10.16-0.23,20.16,1.09,29.72,4.74
		c1.07,0.41,2.51,1.77,2.53,2.72C97.93,212.44,97.86,221.21,97.86,230.14z"/>
	<path class="st0" d="M164.41,280.77c0,7.86,0.04,15.65-0.08,23.45c-0.01,0.66-1.01,1.67-1.74,1.9c-12.21,3.84-24.49,5.38-36.3-1.03
		c-10.11-5.48-15.63-14.44-15.73-25.8c-0.29-32.99-0.08-65.99,0.03-98.98c0-0.99,0.93-2.69,1.69-2.86
		c9.02-2.07,18.09-3.91,27.15-5.79c0.31-0.06,0.67,0.13,1.36,0.28c0,8.59,0,17.22,0,26.42c5.66,0,10.96,0,16.27,0
		c1.66,0,3.41-0.28,4.96,0.14c0.99,0.27,2.38,1.57,2.41,2.44c0.2,7,0.06,14,0.14,21c0.03,2.18-1.06,2.53-2.87,2.52
		c-5.82-0.05-11.65,0.09-17.46-0.06c-2.63-0.07-3.49,0.75-3.47,3.44c0.12,13.77-0.01,27.54,0.08,41.3
		c0.06,8.72,4.66,13.22,13.33,12.97C157.47,282.01,160.73,281.27,164.41,280.77z"/>
	<path class="st0" d="M205.7,306.96c-5.97,0-11.52,0-17.07,0c-3.56,0-7.13-0.11-10.69,0.03c-2.28,0.09-3.26-0.69-3.15-3.04
		c0.13-2.61,0.02-5.22,0.02-7.83c0-30.87,0-61.73,0-92.6c0-5.16,0.01-5.17,5.31-5.17c5.82-0.01,11.65,0.14,17.47-0.06
		c3.02-0.1,4.75,0.67,4.91,3.95c0.07,1.36,0.59,2.7,1.07,4.76c3.4-4.53,6.84-8.25,11.99-9.07c3.69-0.59,7.53-0.51,11.28-0.32
		c0.95,0.05,2.61,1.62,2.62,2.52c0.15,8.42,0.01,16.84-0.06,25.27c0,0.2-0.23,0.4-0.38,0.65c-2.67-0.12-5.45-0.69-8.05-0.25
		c-3.56,0.6-7.16,1.6-10.41,3.13c-3.35,1.58-5,4.32-4.95,8.57c0.26,21.6,0.12,43.21,0.12,64.82
		C205.7,303.72,205.7,305.11,205.7,306.96z"/>
	<path class="st0" d="M268.25,306.84c-10.37,0-20.34,0-30.75,0c-0.07-1.34-0.19-2.59-0.19-3.84c-0.01-33.48,0.04-66.96-0.07-100.45
		c-0.01-3.2,0.76-4.37,4.11-4.27c7.72,0.22,15.45,0.06,23.17,0.08c1.16,0,2.33,0.12,3.73,0.2
		C268.25,234.7,268.25,270.6,268.25,306.84z"/>
	<path class="st0" d="M237.31,188.53c0-8.12-0.06-15.68,0.09-23.23c0.02-0.77,1.22-1.99,2.06-2.18c9.47-2.14,18.97-4.12,28.99-6.25
		c0,8.18,0.03,16.05-0.07,23.92c-0.01,0.52-0.94,1.34-1.56,1.48C257.24,184.35,247.63,186.35,237.31,188.53z"/>
</g>
</svg>
